<?xml version="1.0" encoding="UTF-8"?>
<svg version="1.1" xmlns="http://www.w3.org/2000/svg" width="401" height="383">
<path d="M0 0 C1.47002173 -0.00067557 2.94004335 -0.0016477 4.4100647 -0.00289917 C7.4880683 -0.00436884 10.56604277 -0.00224824 13.64404297 0.00244141 C17.53474145 0.00808858 21.42537075 0.00480201 25.31606674 -0.00101089 C56.09580658 -0.03980496 56.09580658 -0.03980496 70.9765625 1.1328125 C72.45672352 5.00603766 71.44634235 7.56049066 70.140625 11.39453125 C69.73585938 12.59529297 69.33109375 13.79605469 68.9140625 15.03320312 C68.59115234 15.96483276 68.59115234 15.96483276 68.26171875 16.9152832 C67.60134825 18.82093077 66.95564698 20.73105692 66.3125 22.64257812 C63.1373852 31.9719898 63.1373852 31.9719898 61.9765625 33.1328125 C53.20903134 34.34265053 44.29447513 34.33319038 35.4609375 34.44921875 C34.11044782 34.46985508 32.75996362 34.49085293 31.40948486 34.51219177 C27.89813754 34.56672455 24.38673883 34.61642956 20.87530518 34.66503906 C17.27489791 34.71576487 13.67456295 34.77118102 10.07421875 34.82617188 C3.04172963 34.93290854 -3.9908247 35.03453184 -11.0234375 35.1328125 C1.26611675 44.41762804 1.26611675 44.41762804 13.7890625 53.3828125 C15.22564394 54.39007823 16.66184273 55.39788993 18.09765625 56.40625 C19.1028833 57.11152832 19.1028833 57.11152832 20.12841797 57.83105469 C25.89486782 61.89270734 31.56361462 66.08904654 37.23828125 70.27734375 C38.01558594 70.85097656 38.79289062 71.42460937 39.59375 72.015625 C41.23589972 73.22756297 42.87782364 74.43980695 44.51953125 75.65234375 C49.9343676 79.64578556 55.38326887 83.58804602 60.8515625 87.5078125 C68.48360602 92.98523436 75.9582292 98.65477034 83.40576172 104.37988281 C89.53833691 109.0814094 95.77128567 113.58168093 102.1640625 117.921875 C106.15132715 121.05630805 109.34045244 124.22448231 110.9765625 129.1328125 C111.5075102 135.39799531 110.832974 140.02361195 106.9765625 145.1328125 C103.16470814 148.76022229 99.28512941 150.4531694 94.0390625 150.8203125 C90.18000441 150.55194422 87.8775122 149.72301533 84.72265625 147.50390625 C83.9433374 146.96000244 83.16401855 146.41609863 82.36108398 145.85571289 C78.54600935 143.09918768 74.74844946 140.32322265 70.9765625 137.5078125 C64.86244482 132.97137695 58.7135161 128.49882722 52.4765625 124.1328125 C44.01129768 118.19901219 35.69406239 112.07361742 27.38818359 105.91943359 C17.26592728 98.42047918 7.12940404 90.9421282 -3.0859375 83.5703125 C-3.8195752 83.04074951 -4.55321289 82.51118652 -5.30908203 81.96557617 C-9.12148218 79.21664383 -12.94019496 76.47686468 -16.765625 73.74609375 C-21.20675558 70.57117151 -25.62568359 67.36754202 -30.0234375 64.1328125 C-30.60834961 63.70484375 -31.19326172 63.276875 -31.79589844 62.8359375 C-39.30775972 57.27761132 -44.05149155 52.04865034 -47.0234375 43.1328125 C-47.73211187 30.11773511 -47.17390515 20.87014863 -38.5625 10.34765625 C-28.36736916 -0.92442503 -14.0689078 -0.02295649 0 0 Z " fill="#F0993E" transform="translate(56.0234375,114.8671875)"/>
<path d="M0 0 C6.05617638 2.61800041 11.10242769 6.05285983 16.3125 10.0625 C17.01439453 10.59166016 17.71628906 11.12082031 18.43945312 11.66601562 C20.31340366 13.08978929 22.17965294 14.50827168 24 16 C24.5880542 16.38728271 25.1761084 16.77456543 25.78198242 17.17358398 C27.44479125 19.66696399 27.10405657 21.54946399 26.61672974 24.42529297 C25.22149032 30.25010168 23.23430687 35.89696478 21.30859375 41.5625 C20.83854004 42.96332112 20.36915469 44.36436668 19.90040588 45.765625 C18.67242695 49.43058633 17.43546478 53.09245225 16.1965332 56.75372314 C14.93086421 60.49933396 13.67381668 64.24783513 12.41601562 67.99609375 C9.95238447 75.33356627 7.4792449 82.66778647 5 90 C8.8115754 88.16908529 12.14854215 85.85196602 15.5625 83.375 C16.18745361 82.92479492 16.81240723 82.47458984 17.45629883 82.01074219 C19.30630568 80.676714 21.15340994 79.33875199 23 78 C23.88945313 77.35804688 24.77890625 76.71609375 25.6953125 76.0546875 C29.91721243 72.99744962 34.11916361 69.91403704 38.30859375 66.8125 C46.66765607 60.62750103 55.06106927 54.51050464 63.57788086 48.54443359 C69.83154002 44.15020643 75.97962941 39.61938181 82.12280273 35.07250977 C87.28329112 31.25589306 92.46919025 27.48107282 97.70800781 23.77270508 C101.03573633 21.41467471 104.33523515 19.02302755 107.6171875 16.6015625 C108.81589478 15.72189819 108.81589478 15.72189819 110.03881836 14.82446289 C111.59581117 13.68076649 113.14895755 12.53180816 114.69750977 11.37670898 C121.42336835 6.45186656 126.98898865 3.08662625 135.56640625 4.30078125 C141.17755462 5.91297316 144.14734981 9.48723353 146.9375 14.4375 C148.42063121 19.41035172 148.64900304 23.05299087 147 28 C141.57194115 36.14208827 132.53173959 41.25363365 124.625 46.765625 C120.09339436 49.92552202 115.60210106 53.13845258 111.125 56.375 C110.3827417 56.91133057 109.6404834 57.44766113 108.87573242 58.00024414 C103.37109078 61.9870988 97.90155142 66.0202794 92.4375 70.0625 C85.82425611 74.95487539 79.14828529 79.74283118 72.41162109 84.46337891 C67.07356086 88.21501771 61.80779291 92.057413 56.5625 95.9375 C13.32710268 127.90005405 13.32710268 127.90005405 -2 126 C-12.87897565 123.27292524 -19.26060764 118.66638698 -25.51953125 109.5 C-30.45753534 101.1614179 -30.42546833 91.56512733 -28.40637207 82.26599121 C-26.48527454 75.02785376 -24.04468427 67.95822871 -21.625 60.875 C-20.88874755 58.65958454 -20.15496009 56.44334843 -19.42358398 54.22631836 C-17.9742797 49.84287301 -16.5127191 45.46386028 -15.03955078 41.08837891 C-12.5205013 33.59369713 -10.10041196 26.06844793 -7.6942749 18.53692627 C-6.7101505 15.46133547 -5.71649624 12.38887154 -4.72265625 9.31640625 C-4.41078369 8.35162354 -4.09891113 7.38684082 -3.77758789 6.39282227 C-3.19262078 4.5927398 -2.5985385 2.79561551 -2 1 C-1.34 0.67 -0.68 0.34 0 0 Z " fill="#F0993E" transform="translate(98,240)"/>
<path d="M0 0 C5.14651534 4.76994104 7.41376738 10.09138882 9.4453125 16.62109375 C9.82815651 17.81155304 9.82815651 17.81155304 10.21873474 19.02606201 C11.05036463 21.61884878 11.86884834 24.21558944 12.6875 26.8125 C13.27372814 28.64718871 13.86089825 30.48157669 14.44897461 32.31567383 C15.62593402 35.99082803 16.7980859 39.66745243 17.96533203 43.34570312 C20.00000871 49.75730929 22.06023153 56.16052052 24.125 62.5625 C24.6804248 64.29197876 24.6804248 64.29197876 25.24707031 66.05639648 C28.06565077 74.8180009 30.93703166 83.56196108 33.81931114 92.30278969 C34.4911223 94.34064923 35.16238287 96.37868927 35.83345032 98.41679382 C36.05753287 99.09732347 36.28161543 99.77785311 36.51248837 100.47900486 C36.96879983 101.86482387 37.42509155 103.25064938 37.88136387 104.63648129 C39.01351007 108.0740145 40.14742931 111.51094435 41.28518677 114.94662476 C56.67249361 161.41869528 56.67249361 161.41869528 51.8046875 174.14453125 C47.13358033 182.53195953 39.86275346 189.04256531 30.8125 192.125 C22.38233379 194.42528523 14.48628401 194.19353407 6.5625 190.375 C-2.60364524 185.05136991 -10.99980003 178.33074158 -19.50390625 172.02734375 C-30.90625935 163.57792494 -42.3688525 155.27444755 -54.25024414 147.50732422 C-59.12464029 144.30982908 -63.81271328 140.92387609 -68.4375 137.375 C-68.30859375 135.1484375 -68.30859375 135.1484375 -67.4375 132.375 C-64.84765625 130.1640625 -64.84765625 130.1640625 -61.5 128 C-60.31186213 127.22493528 -59.1243688 126.44888168 -57.9375 125.671875 C-57.34582031 125.28966797 -56.75414062 124.90746094 -56.14453125 124.51367188 C-52.89307233 122.34479253 -49.83083062 119.90021527 -46.75390625 117.4921875 C-43.42937086 115.88878595 -41.95250867 116.24153706 -38.4375 117.375 C-35.50847321 119.10859055 -32.83097992 121.12746557 -30.125 123.1875 C-28.52023453 124.37855232 -26.91474837 125.56863414 -25.30859375 126.7578125 C-24.09212158 127.66515137 -24.09212158 127.66515137 -22.85107422 128.59082031 C-19.17299967 131.30975303 -15.43312399 133.93781034 -11.6875 136.5625 C-7.62734471 139.41586086 -3.57029346 142.272283 0.45703125 145.171875 C1.38660645 145.84053589 1.38660645 145.84053589 2.33496094 146.52270508 C3.99687589 147.72018144 5.6567283 148.92051888 7.31640625 150.12109375 C10.98915121 152.67124278 14.7506837 155.04002584 18.5625 157.375 C16.10309972 149.34805149 13.63387637 141.32414659 11.1574707 133.3024292 C10.58060213 131.43364249 10.00416132 129.56472376 9.42773438 127.69580078 C4.60022558 112.0689297 -0.34822169 96.4847779 -5.41711426 80.93447876 C-6.31000027 78.195169 -7.20142342 75.45538605 -8.09277344 72.71557617 C-10.74215611 64.58091518 -13.40444214 56.45129838 -16.12374878 48.33970642 C-17.25926613 44.9483207 -18.38509252 41.55375784 -19.50982666 38.15878296 C-20.03820015 36.57316028 -20.5714028 34.98913733 -21.10980225 33.40689087 C-27.25381358 15.34596349 -27.25381358 15.34596349 -24.25 7.125 C-18.46963901 -1.64520289 -9.76674487 -4.61700667 0 0 Z " fill="#ADD345" transform="translate(274.4375,172.625)"/>
<path d="M0 0 C10.96525464 7.72303649 14.39384361 19.73106261 18.2890625 31.96875 C18.80069165 33.54372052 19.3136567 35.11825764 19.82788086 36.69238281 C20.8997459 39.97717658 21.96581136 43.26376862 23.02783203 46.55175781 C25.45326443 54.04530947 27.94697808 61.51613045 30.44085693 68.98712158 C31.21057149 71.29578691 31.97700459 73.6055183 32.74267578 75.91552734 C33.21770846 77.34474816 33.69280293 78.77394844 34.16796875 80.203125 C34.57861572 81.44030273 34.9892627 82.67748047 35.41235352 83.95214844 C36.32667818 86.61219656 37.28900013 89.21820738 38.30834961 91.83691406 C39.60067045 95.41808335 39.94586093 97.83643755 39.6640625 101.59375 C35.44940676 103.70107787 29.97918052 102.86162337 25.34277344 102.88891602 C23.30335258 102.90612939 21.26555367 102.95001835 19.2265625 102.99414062 C17.29683594 103.00670898 17.29683594 103.00670898 15.328125 103.01953125 C14.14686035 103.03411377 12.9655957 103.04869629 11.74853516 103.0637207 C8.6640625 102.59375 8.6640625 102.59375 6.47753906 101.22192383 C3.68784744 97.17897414 2.4399991 92.78016054 0.984375 88.1171875 C0.64912811 87.07793121 0.31388123 86.03867493 -0.03152466 84.96792603 C-1.10284749 81.63843155 -2.15726076 78.30386595 -3.2109375 74.96875 C-3.91161598 72.77827942 -4.61342785 70.58817105 -5.31640625 68.3984375 C-6.3490939 65.17996986 -7.38059402 61.9611636 -8.40692139 58.74066162 C-11.30012253 49.6634354 -14.29198032 40.62140619 -17.3359375 31.59375 C-19.64189716 33.89970966 -19.99757003 35.28211491 -20.89453125 38.38671875 C-21.34046631 39.89480103 -21.34046631 39.89480103 -21.79541016 41.43334961 C-22.11815918 42.53815674 -22.4409082 43.64296387 -22.7734375 44.78125 C-25.72711969 54.64119556 -28.95637062 64.35406178 -32.4609375 74.03125 C-36.97459975 86.51229338 -41.14112692 99.08650082 -45.2109375 111.71875 C-49.56315199 125.19610552 -53.97024323 138.65113783 -58.61578369 152.03070068 C-59.17377777 153.64036874 -59.72833366 155.25123328 -60.27923584 156.86334229 C-61.04052337 159.08708321 -61.8150366 161.3057484 -62.59375 163.5234375 C-62.81299133 164.1703656 -63.03223267 164.8172937 -63.25811768 165.48382568 C-65.20719591 170.94456278 -67.48340665 174.5606078 -72.5859375 177.40625 C-77.38663033 178.9264694 -81.44505065 179.68664625 -86.2578125 177.8671875 C-90.76124886 175.49999659 -94.17758195 172.48963889 -96.0859375 167.71875 C-96.79083381 161.72713133 -96.07016416 156.91314968 -94.18359375 151.203125 C-93.84582664 150.16705109 -93.84582664 150.16705109 -93.50123596 149.11004639 C-92.78930008 146.93456312 -92.06321468 144.76414618 -91.3359375 142.59375 C-90.88704828 141.23138635 -90.43895491 139.86876018 -89.99169922 138.50585938 C-88.84501936 135.02248923 -87.68443075 131.54393317 -86.51870728 128.06689453 C-85.74098213 125.74693543 -84.96537217 123.42627723 -84.19018555 121.10546875 C-82.09155419 114.82391559 -79.98903275 108.54366626 -77.88574219 102.26367188 C-76.71014843 98.75324417 -75.53603845 95.2423229 -74.36288452 91.7310791 C-73.88599077 90.30441084 -73.40863361 88.87789741 -72.93081665 87.45153809 C-69.55942447 77.38411384 -66.26465441 67.29383065 -63.01171875 57.1875 C-61.87118819 53.65626044 -60.73001285 50.12522978 -59.5887146 46.59423828 C-58.84478231 44.28515941 -58.1043272 41.97495698 -57.36758423 39.66357422 C-46.27662759 4.87129545 -46.27662759 4.87129545 -33.87109375 -1.71484375 C-22.91740088 -6.36332721 -10.24871021 -6.1697921 0 0 Z " fill="#D9AE3F" transform="translate(216.3359375,6.40625)"/>
<path d="M0 0 C2.22706737 0.01180338 4.45413774 0.02241634 6.68121243 0.03274179 C13.68429991 0.06573351 20.6873378 0.10353535 27.69036126 0.14810699 C35.71515857 0.19908567 43.73980273 0.23319307 51.76473546 0.25328773 C58.02016626 0.27000295 64.27540771 0.30190306 70.53071094 0.34513384 C74.24640729 0.37046978 77.96186984 0.3895415 81.67765713 0.3925097 C85.80945838 0.39626923 89.94042937 0.43153231 94.07205868 0.46942353 C95.88786182 0.46423455 95.88786182 0.46423455 97.74034786 0.45894074 C107.93726329 0.5969552 116.07114743 2.87316434 123.61014462 9.96869111 C131.16973685 18.51572473 132.82446316 26.29239085 132.70780087 37.45697236 C132.00852065 46.59756371 127.73699951 52.67985993 121.43436337 59.03119111 C118.42096703 61.60809436 115.26735008 63.95312536 112.05936337 66.28119111 C111.18376766 66.92741426 110.30817196 67.5736374 109.40604305 68.23944306 C103.19248249 72.80628639 96.9071251 77.27012318 90.58475399 81.68475556 C85.82972321 85.01271901 81.17894147 88.45571926 76.55936337 91.96869111 C67.75033752 98.66011982 58.60971265 104.85616902 49.43436337 111.03119111 C46.2140667 108.93555427 44.88244374 107.47762647 43.80155087 103.79290986 C43.5527618 102.97242158 43.30397274 102.1519333 43.04764462 101.30658174 C42.8040118 100.45257783 42.56037899 99.59857392 42.30936337 98.71869111 C41.80697143 97.03503402 41.30437188 95.35143886 40.80155087 93.66790986 C40.57048641 92.86659638 40.33942196 92.06528291 40.10135555 91.2396872 C39.54015347 89.38147562 38.87728442 87.55440636 38.19217587 85.73822236 C37.31347058 82.59934216 37.46481766 81.12328788 38.43436337 78.03119111 C40.18436337 76.24676728 40.18436337 76.24676728 42.43436337 74.63665986 C43.25033993 74.04030732 44.06631649 73.44395478 44.90701962 72.82953095 C45.74104305 72.23607881 46.57506649 71.64262666 47.43436337 71.03119111 C48.9152199 69.92537759 50.3944283 68.81735304 51.87186337 67.70697236 C53.39144223 66.58417884 54.91231375 65.46313302 56.43436337 64.34369111 C57.25106503 63.74210176 58.06776669 63.1405124 58.90921688 62.52069306 C64.35349142 58.52381037 69.84326552 54.59789039 75.37186337 50.71869111 C80.43175954 47.16631043 85.47078928 43.59240259 90.43436337 39.90619111 C91.38311337 39.20236299 92.33186337 38.49853486 93.30936337 37.77337861 C95.51774918 36.20453865 95.51774918 36.20453865 96.43436337 34.03119111 C95.77690624 34.03250031 95.11944912 34.03380952 94.44206905 34.0351584 C68.56071281 34.07798835 42.67915416 34.00365121 16.79827595 33.84728456 C10.12054383 33.80740567 3.44300147 33.77486138 -3.23482609 33.76019502 C-9.78817858 33.74578638 -16.34120807 33.71075517 -22.89441586 33.66288209 C-25.36987478 33.64810205 -27.84538467 33.64015205 -30.32088757 33.63930726 C-33.75776687 33.63694573 -37.19362979 33.60995392 -40.6303339 33.57708955 C-42.14420185 33.5846351 -42.14420185 33.5846351 -43.68865299 33.59233308 C-49.84837882 33.50110747 -53.53557802 32.65787184 -58.56563663 29.03119111 C-62.21530281 24.80526186 -63.82734833 20.62135297 -63.56563663 15.03119111 C-62.66921999 10.66810122 -61.33303203 7.7789097 -58.12813663 4.65619111 C-54.52382807 2.37053202 -51.78788275 0.81084993 -47.47927189 0.61781526 C-46.25729918 0.55981264 -46.25729918 0.55981264 -45.01064014 0.50063825 C-44.116455 0.46987352 -43.22226986 0.4391088 -42.3009882 0.40741181 C-40.8601153 0.35079236 -40.8601153 0.35079236 -39.39013386 0.29302907 C-26.26487569 -0.16111097 -13.13079253 -0.07010747 0 0 Z " fill="#AED345" transform="translate(255.56563663482666,114.96880888938904)"/>
<path d="M0 0 C8.02000565 5.67117934 14.71392223 12.95930712 16.83984375 22.74609375 C17.88254013 31.91360808 17.90086137 40.75038883 12.83984375 48.74609375 C11.97359375 50.29296875 11.97359375 50.29296875 11.08984375 51.87109375 C5.2195214 59.3720612 -1.54889112 63.71185833 -10.59765625 66.49609375 C-22.23343186 67.63129137 -31.3992767 65.86277015 -40.90234375 58.7578125 C-44.52502699 55.5299892 -46.90520638 52.01640508 -49.16015625 47.74609375 C-49.57265625 46.98554688 -49.98515625 46.225 -50.41015625 45.44140625 C-54.29845167 37.20578054 -54.49130608 27.7754578 -52.22265625 18.99609375 C-48.72384918 10.17515762 -40.45993393 2.99412185 -32.16015625 -1.25390625 C-21.60143474 -5.70413663 -10.08273494 -5.85272679 0 0 Z " fill="#2ABB9B" transform="translate(216.16015625,168.25390625)"/>
</svg>
